# xmcd CD database file
#
# Track frame offsets:
#	150
#	25996
#	50317
#	76002
#	95249
#	109993
#	126756
#	158793
#	177422
#
# Disc length: 2685 seconds
#
# Revision: 5
# Processed by: cddbd v1.5.2PL0 Copyright (c) Steve Scherf et al.
# Submitted via: CDex 1.51
#
DISCID=6f0a7b09
DTITLE=Kip Hanrahan - Coup De Tete
DYEAR=1981
DGENRE=Jazz
TTITLE0=Whatever I Want
TTITLE1=At The Moment Of The Serve
TTITLE2=This Night Comes Out Of Both Of Us
TTITLE3=India Song
TTITLE4=A Lover Divides Time (To Hear How It Sounds)
TTITLE5=No One Gets To Transcend Anything (No One Except Oil Company Executives)
TTITLE6=Shadow To Shadow
TTITLE7=Sketch From Two Cubas
TTITLE8=Heart On My Sleeve
EXTD=YEAR: 1981
EXTT0=
EXTT1=
EXTT2=
EXTT3=
EXTT4=
EXTT5=
EXTT6=
EXTT7=
EXTT8=
PLAYORDER=
